<svg xmlns="http://www.w3.org/2000/svg" xmlns:xlink="http://www.w3.org/1999/xlink" id="svg" version="1.1" viewBox="1.89 0.52 396.29 60.51"><g id="svgg"><path id="path0" d="M220.667 0.737 C 215.333 2.583,214.858 9.526,219.914 11.757 C 224.916 13.964,229.981 8.638,227.510 3.770 C 226.698 2.171,226.003 1.596,223.784 0.690 C 223.190 0.448,221.426 0.474,220.667 0.737 M125.833 13.202 L 125.833 25.404 125.125 24.661 C 119.206 18.444,108.150 18.207,101.500 24.153 C 101.087 24.522,100.700 24.826,100.640 24.829 C 100.579 24.831,100.092 25.348,99.556 25.978 C 98.217 27.553,98.151 27.640,97.563 28.583 C 96.772 29.854,96.441 30.521,95.662 32.417 C 95.587 32.600,95.403 33.200,95.254 33.750 C 95.104 34.300,94.913 34.975,94.829 35.250 C 94.271 37.080,94.271 43.737,94.830 45.583 C 94.914 45.858,95.105 46.533,95.257 47.083 C 95.408 47.633,95.674 48.401,95.849 48.790 C 96.024 49.178,96.167 49.542,96.167 49.598 C 96.167 49.972,97.783 52.765,98.371 53.406 C 98.534 53.584,98.667 53.792,98.667 53.867 C 98.667 54.319,101.854 57.156,103.529 58.194 C 105.761 59.579,107.321 60.156,110.633 60.822 C 111.758 61.049,114.946 61.052,115.968 60.829 C 118.274 60.324,119.165 60.077,119.948 59.723 C 120.423 59.509,120.853 59.333,120.903 59.333 C 121.039 59.333,122.883 58.138,123.137 57.886 C 123.258 57.765,123.414 57.667,123.484 57.667 C 123.554 57.667,124.111 57.167,124.722 56.556 L 125.833 55.444 125.833 56.800 C 125.833 58.386,126.085 59.037,126.958 59.708 L 127.554 60.167 131.110 60.167 L 134.667 60.167 134.667 30.583 L 134.667 1.000 130.250 1.000 L 125.833 1.000 125.833 13.202 M265.000 13.083 C 265.000 19.729,264.961 25.167,264.913 25.167 C 264.865 25.167,264.471 24.801,264.038 24.354 C 261.818 22.064,258.575 20.456,255.280 20.010 C 252.465 19.629,249.007 19.911,247.083 20.679 C 246.900 20.752,246.563 20.862,246.333 20.922 C 245.619 21.110,242.603 22.651,242.097 23.086 C 241.832 23.314,241.560 23.500,241.494 23.500 C 240.723 23.500,237.040 27.978,235.805 30.417 C 233.947 34.088,233.020 41.491,233.970 45.083 C 234.745 48.015,235.097 49.029,235.865 50.554 C 236.288 51.394,237.293 53.061,237.690 53.581 C 238.464 54.596,240.480 56.642,241.170 57.114 C 241.397 57.270,241.621 57.443,241.667 57.498 C 241.713 57.553,242.237 57.897,242.833 58.261 C 249.785 62.517,258.782 61.756,264.047 56.467 C 265.029 55.480,265.000 55.477,265.000 56.557 C 265.000 57.925,265.390 58.995,266.119 59.625 L 266.746 60.167 270.373 60.167 L 274.000 60.167 274.000 30.583 L 274.000 1.000 269.500 1.000 L 265.000 1.000 265.000 13.083 M18.142 20.006 C 15.475 20.318,10.955 22.288,9.333 23.847 C 9.196 23.979,8.764 24.356,8.374 24.685 C 7.762 25.201,6.700 26.351,5.833 27.436 C 1.731 32.568,0.664 42.116,3.422 49.000 C 4.128 50.761,4.242 51.000,4.374 51.000 C 4.443 51.000,4.500 51.087,4.500 51.194 C 4.500 51.417,5.438 52.929,5.872 53.406 C 6.034 53.584,6.167 53.788,6.167 53.860 C 6.167 53.981,8.784 56.627,9.422 57.150 C 9.863 57.512,12.886 59.333,13.046 59.333 C 13.124 59.333,13.577 59.511,14.052 59.728 C 14.904 60.117,15.621 60.309,17.917 60.767 C 19.284 61.040,22.349 61.074,23.468 60.829 C 25.774 60.324,26.665 60.077,27.448 59.723 C 27.923 59.509,28.353 59.333,28.403 59.333 C 28.539 59.333,30.383 58.138,30.637 57.886 C 30.758 57.765,30.919 57.667,30.994 57.667 C 31.069 57.667,31.626 57.173,32.232 56.571 L 33.333 55.475 33.333 56.690 C 33.333 58.202,33.670 59.107,34.455 59.708 L 35.054 60.167 38.610 60.167 L 42.167 60.167 42.167 40.417 L 42.167 20.667 37.750 20.667 L 33.333 20.667 33.333 23.018 L 33.333 25.370 32.328 24.368 C 28.762 20.813,23.938 19.330,18.142 20.006 M69.667 20.027 C 67.752 20.296,65.446 21.232,63.833 22.395 C 62.785 23.150,61.167 24.725,61.167 24.989 C 61.167 25.087,61.092 25.167,61.000 25.167 C 60.897 25.167,60.833 24.306,60.833 22.917 L 60.833 20.667 56.415 20.667 L 51.996 20.667 52.040 39.842 L 52.083 59.018 52.748 59.592 L 53.413 60.167 57.123 60.167 L 60.833 60.167 60.833 49.010 C 60.833 35.894,60.867 35.614,62.802 32.500 C 66.266 26.926,73.972 26.447,77.269 31.602 C 77.579 32.087,77.833 32.533,77.833 32.592 C 77.833 32.651,77.933 32.936,78.056 33.225 C 78.756 34.878,78.734 34.465,78.794 46.643 L 78.852 58.369 79.251 59.002 C 79.940 60.093,80.256 60.167,84.276 60.167 L 87.833 60.167 87.833 47.827 C 87.833 35.444,87.759 33.422,87.216 31.083 C 86.827 29.409,85.647 26.783,84.883 25.894 C 84.672 25.649,84.500 25.398,84.500 25.337 C 84.500 25.115,82.255 22.955,81.595 22.541 C 81.222 22.308,80.879 22.072,80.833 22.017 C 79.595 20.529,73.640 19.468,69.667 20.027 M187.083 20.023 C 186.442 20.104,185.467 20.310,184.917 20.481 C 184.367 20.653,183.708 20.842,183.454 20.901 C 182.993 21.008,181.367 21.687,180.769 22.022 C 180.596 22.119,180.183 22.348,179.852 22.532 C 178.998 23.006,178.125 23.543,177.833 23.775 C 175.847 25.353,174.957 26.244,173.242 28.371 C 172.253 29.598,170.691 33.117,170.264 35.083 C 170.105 35.817,169.905 36.731,169.821 37.115 C 169.252 39.696,169.934 45.905,171.019 48.039 C 171.100 48.199,171.167 48.412,171.167 48.514 C 171.167 48.813,172.541 51.500,172.694 51.500 C 172.771 51.500,172.833 51.601,172.833 51.724 C 172.833 51.847,173.021 52.166,173.250 52.432 C 173.479 52.699,173.666 52.977,173.666 53.051 C 173.668 53.814,178.429 57.680,180.833 58.870 C 184.380 60.627,189.605 61.451,193.261 60.833 C 194.803 60.572,196.716 60.154,197.083 59.998 C 197.267 59.921,197.846 59.703,198.371 59.516 C 199.220 59.212,200.234 58.718,201.500 57.990 C 204.699 56.150,209.667 50.054,209.667 47.968 C 209.667 47.839,209.730 47.662,209.807 47.575 C 210.069 47.280,210.592 45.234,210.994 42.931 C 211.234 41.557,211.204 39.180,210.926 37.500 C 210.544 35.194,210.376 34.510,209.841 33.083 C 209.554 32.317,208.259 29.746,208.135 29.694 C 208.061 29.664,208.000 29.538,208.000 29.415 C 208.000 29.291,207.901 29.091,207.781 28.970 C 207.660 28.849,207.416 28.525,207.239 28.250 C 206.128 26.527,202.919 23.600,201.167 22.712 C 200.846 22.550,200.546 22.378,200.500 22.332 C 200.284 22.112,197.962 21.100,197.083 20.843 C 195.316 20.327,194.606 20.169,193.319 20.008 C 191.698 19.805,188.756 19.812,187.083 20.023 M161.583 20.413 C 159.667 20.809,158.067 21.481,156.861 22.395 C 155.711 23.268,154.112 25.192,153.618 26.298 C 153.450 26.676,153.409 26.252,153.371 23.706 L 153.326 20.661 148.871 20.706 L 144.417 20.750 144.374 39.000 C 144.328 59.106,144.313 58.775,145.290 59.625 L 145.913 60.167 149.623 60.167 L 153.333 60.167 153.333 49.542 C 153.334 36.872,153.390 36.409,155.303 33.333 C 157.482 29.830,162.375 28.090,166.085 29.501 C 167.040 29.864,167.000 30.055,167.000 25.108 L 167.000 20.549 165.843 20.358 C 164.415 20.122,162.897 20.142,161.583 20.413 M217.872 39.625 L 217.917 58.583 218.305 59.128 C 219.006 60.111,219.271 60.167,223.242 60.167 L 226.833 60.167 226.833 40.417 L 226.833 20.667 222.331 20.667 L 217.828 20.667 217.872 39.625 M25.250 28.316 C 26.155 28.519,28.667 29.649,28.667 29.852 C 28.667 29.921,28.798 30.021,28.958 30.074 C 29.348 30.203,30.633 31.422,31.251 32.250 C 31.524 32.617,31.786 32.954,31.832 33.000 C 31.879 33.046,32.035 33.309,32.179 33.583 C 32.323 33.858,32.525 34.233,32.629 34.417 C 33.913 36.692,34.386 39.691,33.909 42.542 C 33.631 44.199,33.081 45.781,32.415 46.836 C 32.187 47.198,32.000 47.538,32.000 47.594 C 32.000 47.649,31.719 48.044,31.375 48.472 C 26.955 53.975,19.341 54.437,14.500 49.496 C 13.100 48.067,12.641 47.378,11.949 45.667 C 11.820 45.346,11.636 44.890,11.540 44.654 C 10.796 42.810,10.772 38.132,11.498 36.270 C 12.515 33.659,13.058 32.763,14.494 31.324 C 17.307 28.504,21.218 27.411,25.250 28.316 M117.417 28.267 C 118.602 28.539,121.167 29.623,121.167 29.852 C 121.167 29.921,121.298 30.020,121.458 30.071 C 122.645 30.451,124.785 33.436,125.963 36.353 C 126.850 38.549,126.735 42.604,125.714 45.160 C 122.406 53.435,112.735 55.525,106.741 49.259 C 98.557 40.704,106.193 25.689,117.417 28.267 M256.688 28.275 C 259.723 28.953,262.497 30.994,263.958 33.625 C 264.073 33.831,264.239 34.131,264.327 34.292 C 266.988 39.117,266.077 45.527,262.167 49.491 C 259.723 51.968,257.844 52.750,254.333 52.750 C 248.779 52.750,244.994 49.883,243.186 44.305 C 242.484 42.137,242.656 37.294,243.500 35.501 C 243.565 35.363,243.756 34.950,243.924 34.583 C 246.140 29.771,251.509 27.117,256.688 28.275 M192.333 28.340 C 194.055 28.610,196.658 29.801,197.610 30.753 C 197.732 30.875,198.002 31.111,198.210 31.279 C 199.733 32.505,201.084 34.983,201.829 37.917 C 202.052 38.795,202.048 42.027,201.822 42.897 C 201.357 44.694,200.516 46.848,200.156 47.167 C 200.104 47.212,199.828 47.594,199.542 48.014 C 195.008 54.680,184.571 54.153,180.348 47.044 C 178.140 43.327,178.052 37.946,180.138 34.167 C 182.533 29.829,187.305 27.549,192.333 28.340 " stroke="none" fill="#fcfcfc" fill-rule="evenodd" data-darkreader-inline-fill="" data-darkreader-inline-stroke="" style="--darkreader-inline-fill:#1a1c1d; --darkreader-inline-stroke:none;"/><path id="path1" d="M311.833 1.080 C 310.267 1.609,310.207 3.061,311.664 5.167 C 311.910 5.522,312.311 6.224,313.235 7.917 C 313.335 8.100,313.456 8.287,313.503 8.333 C 313.551 8.379,313.682 8.604,313.794 8.833 C 314.004 9.262,314.067 9.372,315.337 11.500 C 316.369 13.229,316.804 14.006,317.039 14.542 C 317.149 14.794,317.298 15.000,317.370 15.000 C 317.441 15.000,317.500 15.079,317.500 15.175 C 317.500 15.271,317.762 15.760,318.083 16.261 C 318.404 16.763,318.667 17.211,318.667 17.257 C 318.667 17.302,318.860 17.646,319.095 18.019 C 319.331 18.393,319.500 18.718,319.470 18.741 C 319.441 18.765,319.000 19.039,318.490 19.351 C 317.981 19.662,317.418 20.011,317.240 20.126 C 317.062 20.241,316.804 20.387,316.667 20.451 C 316.529 20.515,316.342 20.626,316.250 20.700 C 316.158 20.773,315.371 21.335,314.500 21.950 C 313.629 22.564,312.818 23.164,312.696 23.283 C 312.575 23.402,312.425 23.500,312.363 23.501 C 312.301 23.501,311.983 23.745,311.657 24.042 C 311.330 24.340,310.712 24.869,310.284 25.218 C 308.823 26.406,305.739 29.598,304.234 31.479 C 304.059 31.697,303.710 32.107,303.458 32.391 C 303.206 32.675,303.000 32.954,303.000 33.011 C 303.000 33.068,302.813 33.333,302.584 33.599 C 302.354 33.865,302.167 34.134,302.167 34.196 C 302.167 34.259,302.064 34.412,301.939 34.538 C 301.048 35.428,297.892 41.098,296.673 44.000 C 295.531 46.715,295.570 46.615,295.258 47.667 C 295.109 48.171,294.921 48.733,294.841 48.917 C 294.761 49.100,294.620 49.550,294.529 49.917 C 294.438 50.283,294.239 51.033,294.088 51.583 C 293.936 52.133,293.750 52.883,293.676 53.250 C 293.601 53.617,293.422 54.479,293.278 55.167 C 293.134 55.854,292.938 57.140,292.842 58.025 C 292.747 58.910,292.623 59.754,292.567 59.900 C 292.473 60.144,296.949 60.167,345.321 60.167 L 398.178 60.167 398.077 59.292 C 397.704 56.057,397.221 53.458,396.553 51.083 C 395.810 48.446,394.804 45.551,393.976 43.674 C 392.884 41.196,390.265 36.332,389.845 36.000 C 389.787 35.954,389.481 35.504,389.167 35.000 C 388.852 34.496,388.554 34.046,388.505 34.000 C 388.455 33.954,388.081 33.467,387.674 32.917 C 387.266 32.367,386.854 31.832,386.758 31.729 C 386.662 31.626,386.211 31.101,385.755 30.562 C 384.640 29.244,381.317 25.925,380.093 24.907 C 379.549 24.454,378.985 23.971,378.841 23.833 C 378.696 23.696,378.392 23.452,378.164 23.292 C 377.936 23.132,377.225 22.624,376.583 22.162 C 375.179 21.151,373.956 20.344,373.167 19.906 C 372.846 19.729,372.546 19.546,372.500 19.500 C 372.454 19.454,372.135 19.273,371.790 19.098 C 371.165 18.780,371.165 18.778,371.449 18.348 C 371.605 18.111,371.896 17.617,372.095 17.250 C 372.294 16.883,372.852 15.908,373.336 15.083 C 373.819 14.258,374.335 13.358,374.482 13.083 C 374.630 12.809,374.787 12.546,374.833 12.500 C 374.908 12.425,375.236 11.851,375.738 10.917 C 375.836 10.733,375.954 10.546,376.000 10.500 C 376.046 10.454,376.204 10.191,376.351 9.917 C 376.498 9.642,377.016 8.742,377.502 7.917 C 380.317 3.137,380.417 2.879,379.855 1.831 C 379.300 0.795,377.537 0.660,376.918 1.605 C 376.687 1.957,375.197 4.514,374.483 5.781 C 374.319 6.073,373.993 6.615,373.759 6.986 C 373.525 7.357,373.333 7.737,373.333 7.830 C 373.333 7.924,373.275 8.000,373.203 8.000 C 373.132 8.000,372.987 8.206,372.882 8.458 C 372.776 8.710,372.555 9.142,372.390 9.417 C 372.226 9.692,371.820 10.367,371.488 10.917 C 370.861 11.958,370.264 13.005,369.730 14.000 C 369.558 14.321,369.379 14.621,369.333 14.667 C 369.246 14.754,368.910 15.346,368.318 16.454 L 367.968 17.111 365.526 16.155 C 362.683 15.041,361.090 14.527,358.667 13.942 C 357.079 13.559,356.189 13.384,353.083 12.847 C 349.971 12.309,340.654 12.294,337.864 12.823 C 337.434 12.904,336.333 13.094,335.417 13.244 C 333.845 13.503,333.090 13.665,331.917 13.998 C 331.642 14.076,331.154 14.190,330.833 14.252 C 329.953 14.421,327.164 15.378,324.891 16.290 L 322.865 17.103 322.315 16.176 C 322.012 15.667,321.442 14.711,321.049 14.053 C 320.655 13.395,320.333 12.815,320.333 12.765 C 320.333 12.714,320.071 12.263,319.750 11.761 C 319.429 11.260,319.167 10.816,319.167 10.775 C 319.167 10.734,318.604 9.750,317.917 8.589 C 317.229 7.427,316.667 6.407,316.667 6.322 C 316.667 6.237,316.608 6.167,316.537 6.167 C 316.465 6.167,316.316 5.960,316.205 5.708 C 315.772 4.721,313.923 1.612,313.634 1.385 C 313.147 1.004,312.423 0.881,311.833 1.080 M322.958 36.958 C 327.144 39.141,325.832 45.167,321.170 45.167 C 316.217 45.167,315.230 38.506,319.917 36.709 C 320.666 36.422,322.164 36.545,322.958 36.958 M371.206 36.890 C 372.245 37.350,373.571 38.729,373.728 39.514 C 373.946 40.606,373.841 42.045,373.490 42.771 C 371.531 46.817,365.333 45.491,365.333 41.026 C 365.333 37.748,368.347 35.626,371.206 36.890 " stroke="none" fill="#04dc7c" fill-rule="evenodd" data-darkreader-inline-fill="" data-darkreader-inline-stroke="" style="--darkreader-inline-fill:#03b063; --darkreader-inline-stroke:none;"/><path id="path2" d="" stroke="none" fill="#100ecbc" fill-rule="evenodd" data-darkreader-inline-stroke="" style="--darkreader-inline-stroke:none;"/><path id="path3" d="" stroke="none" fill="#100ecbc" fill-rule="evenodd" data-darkreader-inline-stroke="" style="--darkreader-inline-stroke:none;"/><path id="path4" d="" stroke="none" fill="#100ecbc" fill-rule="evenodd" data-darkreader-inline-stroke="" style="--darkreader-inline-stroke:none;"/></g></svg>